<?xml version="1.0" encoding="utf-8"?>
<!-- Generator: Adobe Illustrator 25.2.3, SVG Export Plug-In . SVG Version: 6.00 Build 0)  -->
<svg version="1.1" id="圖層_1" xmlns="http://www.w3.org/2000/svg" xmlns:xlink="http://www.w3.org/1999/xlink" x="0px" y="0px"
	 viewBox="0 0 366 269" height="269" width="366" style="enable-background:new 0 0 366 269;" xml:space="preserve">
<style type="text/css">
	.st0{fill:#C81414;}
	.st1{fill:#FAF0E6;}
</style>
<polygon class="st0" points="142,2.6 41.8,39.8 1,106.5 33.8,209.3 195.7,241.6 324.9,213.9 366,129.9 366,129.9 329.5,42.4 
	259.1,15.2 "/>
<g>
	<g>
		<g>
			<path class="st1" d="M99.6,179.3c0.2-0.6,0.1-1.3-0.2-1.9c-0.5-1-0.8-2.1-1.2-3.2c0.4-0.2,0.7-0.3,1-0.4c1.5-0.2,2.9-0.7,4.3-1.1
				c0.1,0,0.2,0,0.3,0c0.1,0.1,0.3,0.3,0.4,0.4c0.5,0.3,1.5,0.3,1.7-0.2c0.3-0.7,1.1-0.9,1.4-1.6c-0.1-1.1-0.1-1.1,0.4-2.2
				c0.1-0.3,0.3-0.6,0.4-0.9c0.5-1.4,1.1-2.8,3-3c0,0,0.1,0,0.1,0c0.8-0.4,1.4-1.1,1.6-2c0.1-0.9-0.3-1.6-1.1-2.2
				c-0.8-0.6-1.5-1.2-2.2-1.8c-0.5-0.4-0.9-0.8-1.3-1.2c-0.5-0.4-1.1-0.5-1.7-0.5c-0.9,0.1-1.7,0.2-2.6,0.3c-2.3,0.5-7,0.9-9.4,1
				c1.8-0.6,3.2-0.8,2.9-1.6c-0.3-1.1-1.2-2-1.5-3.1c-0.3-1.1-0.4-1.2-1.7-1.3c-0.1,0-0.3,0-0.3,0c-1.8,1.1-3.5,2.1-5.3,3.1
				c-1.2,0.7-1.2,0.7-1.3,1.9c-1.3,0.1-1.9,0.6-2.5,1.7c0,0-1,0.1-0.9,0.6c-0.4,0.5-0.3,1-0.1,1.4c0.2,0.5,0.4,1,0.7,1.5
				c0.5,0.9,0.8,1.8,0.9,2.8c0,0.8,0.2,1.6,0.2,2.5c-0.1,0.9,0.9,1.4,1,2.2c0,0.1,0.1,0.2,0.1,0.2c0,0.1,0,0.3-0.1,0.4
				c-0.6,0.4-0.8,1.7-0.8,1.7c-0.1,0.1-0.4,0-0.7,0.1c0.4,0.6,0.3,1.2,0.9,1.6c0.5,0.4,0.8,0.9,1.3,1.2c0.5,0.3,1.1,0.4,1.6,0.5
				c1.6-0.9,3.2-1.4,5.2-1.4c-0.1,0.8,0,1.6-0.1,2.5c0,0.2-0.1,0.3-0.2,0.4c-1,1.2-1.1,2.6-1.1,4c0,1.9,0.3,3.8,0.8,5.7
				c0.3,1,0.8,2,0.4,3.1c0,0.1,0,0.3,0.1,0.5c0.4,0.8,0.9,1.5,2,1.4c0.2,0,0.3,0,0.4,0c0.7-0.4,0.6-1.4,1.5-1.3
				c0.2-0.4,0.3-0.9,0.6-1.1c0.4-0.4,0.5-0.8,0.6-1.3c0.1-0.4,0.1-0.8,0.2-1.2c0.4-1.5,0.4-3,0.2-4.5
				C99.4,181.8,99.2,180.5,99.6,179.3z M91.1,165c1-0.1,1.9-0.2,2.8-0.3c1.4-0.1,2.8-0.6,4.1-1.1c1.8-0.8,3.7-0.9,5.6-1.2
				c0.1,0,0.2,0.1,0.3,0.1c0.4,0.6,0.6,1.4,0.7,2.2c0.2,1.3,0.2,2.5,0.3,3.8c0,0.4-0.1,0.7-0.5,0.9c-0.7,0.5-1.2,1.2-2.5,0.8
				c0.8-0.8,2.1-1.1,2.3-2.4c-0.5-0.7-1-1.5-2.1-1.7c-0.3-0.1-0.5-0.2-0.7-0.5c-0.4-0.5-1-0.7-1.7-0.6c-0.6,0.1-1.3,0.1-2,0.2
				c-0.2,0.2-0.3,0.6-0.6,0.7c-0.3,0.2-0.7,0.1-1.1,0.2c-1.3,0.2-2.5,0.3-3.8,0.5c-0.5,0.1-1,0.1-1.7,0.2
				C90.8,166.1,90.9,165.6,91.1,165z M95.6,170.5c-1.8,0-3.7,0.1-5.5,0.1c-0.2,0-0.3-0.1-0.8-0.1c0.4-0.3,0.5-0.5,0.7-0.6
				c0.3-0.1,0.6,0,0.9,0c0.9,0,1.8,0,2.6-0.4c0.9-0.4,1.9-0.4,2.9-0.5c0.7-0.1,1.2,0.3,1.8,0.6c0.6,0.3,1.2,0.7,1.9,0.6
				c0.1,0,0.3,0.1,0.6,0.4c-1,0.1-1.7,0-2.5,0C97.4,170.5,96.5,170.4,95.6,170.5z M121,183.3c-0.3-0.5,0.1-0.7,0.3-1.1
				c-0.2-0.2-0.4-0.5-0.5-0.5c-1.1,0-2.1-0.4-3.2,0.1c-0.6,0.3-1.3,0.4-2,0.1c-0.3-0.1-0.6-0.1-0.9-0.1c-1.4-0.1-2.8-0.1-4.2-0.2
				c-0.7,0-1.2-0.2-1.8-0.5c-0.8-0.4-1.4-1-2.4-1.2c-0.2,0-0.3-0.2-0.5-0.4c-0.4-0.7-1.4-0.8-2-1.3c-0.4,0.1-0.9,0.3-1.3,0.4
				c-0.2,0-0.3,0.1-0.4,0.1c-0.3,0.9-0.3,0.9-0.1,1.6c0.3,1.1,0.5,2.2,0.9,3.3c0.2,0.6,0.5,1.2,0.8,1.7c1.7,2.3,4.2,3.6,7,4.2
				c0.2,0,0.4,0,0.6,0c0.5,0,1,0,1.5,0c1,0,2.1,0,3.1,0c0.4,0,0.8-0.1,1-0.4c0.3-0.5,0.8-0.9,1.4-1.1c1.1-0.5,1.8-1.5,2.7-2.1
				c-0.1-0.6-0.2-1.1-0.1-1.6C121.1,184.1,121.2,183.6,121,183.3z M86.9,179.5c0-0.1-0.1-0.2-0.1-0.2c0,0,0-0.1,0-0.1c0,0,0,0,0,0
				c-0.1-0.1-0.3-0.3-0.5-0.4c-0.4-0.2-1.3,0.6-1.4,0.7v0c-0.3,0.2-0.6,0.3-0.9,0.5c-0.6,0.3-1.2,0.4-1.6-0.1
				c-2.5,0.4-4.9,0.7-7.3,1.1c0,0.2,0,0.3,0,0.4c-0.2,0.7,0,1.2,0.6,1.7c0.6,0.4,1,1.1,1,1.9c0.6,0.4,1.2,0.7,1.5,1.3
				c0.2,0.4,0.7,0.6,1.2,0.6c0.6,0,1.2,0.3,1.7,0.5c0.8,0.4,1.7,0.5,2.6,0.4c1.7-0.2,3-1.2,4.3-2.2
				C87.3,183.6,87.8,181.5,86.9,179.5C86.9,179.5,86.9,179.5,86.9,179.5z M75.1,172.1c0-0.2,0.1-0.5,0.2-0.6c0.3-0.3,0.4-0.7,0.7-1
				c0.2-0.3,0.7-0.3,1-0.6c0.1-0.7,0.1-0.5,0.5-1.1c0-0.1,0.1-0.1,0.1-0.2c0.2-0.1,0.5-0.2,0.5-0.3c0.1-0.1,0.2-0.3,0.4-0.5
				c0,0,0,0,0,0.1c0.2-0.1,0.3-0.3,0.4-0.5c0-0.1,0.1-0.2,0.1-0.3c0.1-0.2,0.5-0.3,0.8-0.5c0.1-0.1,0.2-0.2,0.2-0.2
				c0.4-0.6,0.3-2,0.6-2.7c0.1-0.2,0-0.4,0-0.6c0-0.1,0-0.2,0.1-0.2c0.3-0.6-0.4-1.5-0.2-2.1c0.1-0.2,0.2-0.5,0.3-0.7
				c0.2-0.3,0.3-0.5,0.3-0.9c0.1-0.6-0.6-1.1-0.5-1.8c0.5-0.1,0.6-0.5,0.7-1c0.1-0.6,0.3-1.1,0.4-1.7c0.1-0.3,0.2-0.6,0.3-0.9
				c0.2-0.5,0.5-2.4,0.5-2.9c0-0.4,0.8-1.9,1-2.5l3.7,0.8c0.9,0,1.7-0.1,2.5-0.1c3.8,0.2,7.5,0.4,11.3,0.6c0.6,0,1.2,0.1,1.7,0.3
				c1.7,0.6,3.5,0.6,5.3,0.7c0.4,0,0.9,0,1.2-0.1c0.9-0.3,1.7-0.6,2.7-0.4c0.2,0,0.6-0.1,0.8-0.2c0.8-0.6,1.8-0.9,2.8-1
				c1-0.2,1.8-0.7,1.8-1.6c0-0.4,0.1-0.9,0.2-1.2c-0.6-0.4-1-0.7-1.5-1.1c-0.2-0.2-0.4-0.5-0.7-0.6c-0.7-0.3-1-0.9-1.3-1.4
				c-0.1-0.2-0.2-0.5-0.3-0.8c-0.8-0.1-1.5-0.3-2.3-0.3c-1.3,0-2.6,0-3.8-0.3c-0.7-0.1-1.4-0.1-2.1,0.2c-0.7,0.2-1.5,0.4-2.2,0.4
				c-1.9,0.1-3.8,0.2-5.6,0.5c-2.6,0.4-5.1,0.6-7.7,0.8c-0.9,0.1-1.8,0.1-2.6,0.3c-1.8,0.4-3.6,0.5-5.4,0.5c-0.1,0-0.3,0-0.4,0
				c-0.1,0-0.2-0.1-0.3-0.1c-0.1-0.1-0.3-0.1-0.3-0.2c-0.5-0.6-1.1-1-1.9-1.2c-0.3-0.1-0.6-0.2-0.8-0.3c-0.2-0.1-0.4,0-0.5,0.1
				c-0.1-0.1-1.6,0.4-1.7,0.3c-0.4,0.5-0.8,0.6-1.4,0.4c-0.2,0.3-0.3,0.5-0.5,0.8c-0.3,0.1-0.6,0.1-0.9,0.2
				c-0.3,0.3-0.2,0.6-0.5,0.8c-0.5,0.2-0.5,0.6-0.4,1.1c0.1,0.2,0.2,0.5,0.1,0.7c0,0.1,0.1,0.3,0.2,0.4c0.1,0.1,0.3,0.3,0.5,0.4
				c0.5,0.2,0.7,0.7,1,1.2c0.1,0.2,0.2,0.3,0.4,0.3c0.4,0.1,0.6,0.3,0.6,0.6c0,0.2,0.1,1.1,0.1,1.4c0.1,0.6,0.7,2.5,0.8,3.1
				c0.1,0.7,0.1,1.4,0.1,2.1c-0.1,0.6-0.2,1.3-0.4,1.9c-0.1,0.2-0.1,0.4-0.1,0.7c0,0.2,0,0.5-0.1,0.7c-0.3,0.7,0.3,1.6,0.2,2.3
				c0,0.3-0.1,0.6-0.3,0.9c-0.4,0.5-0.6,1.1-0.7,1.7c-0.3,0.9-0.6,0.7-1.2,1.4c-0.1,0.2-0.3,0.4-0.3,0.6c-0.4,0.8-1.2,1.4-1.8,2.1
				c-0.8,0.8-1.7,1.2-2.8,1.4c-0.9,0.1-1.9-0.5-2.7-0.1c-0.9,0.5-1.8,0.5-2.8,0.7c-0.4,0.3-0.9,0.3-1.4,0.3c-0.1,0-0.2,0-0.2,0
				c-0.1,0-0.1,0-0.1-0.1c-0.3-0.3-0.7-0.6-1.2-0.5c-0.3,0-0.7-0.1-1-0.3c-0.4-0.2-0.7-0.1-1-0.4c-0.5-0.6-1.2-0.8-2-0.5
				c-0.3,0.1-0.5,0.1-0.8,0.1c-0.2,0-0.5,0.1-0.7,0.1c-0.3,0.1-0.5,0.3-0.6,0.6c-0.1,0.3-0.2,0.7-0.2,1.1c0,0.3,0.2,0.6,0.4,0.8
				c0,0,0,0.1,0,0.1c0,0.1,0,0.2-0.1,0.2c0,0-0.1,0-0.2,0c-0.1,0-0.2-0.1-0.3-0.2c0-0.1-0.1-0.2-0.3-0.1c-0.1,0-0.1,0.1-0.1,0.2
				c0.1,0.2,0,0.3-0.1,0.5c-0.2,0.2-0.4,0.3-0.4,0.5c-0.1,0.6-0.7,1.1-0.3,1.8c0,0.1,0,0.2,0,0.2c0,0.1-0.1,0.2-0.1,0.2
				c0.1,0.6,0.2,1.2,0.8,1.5c0.2,0.1,0.3,0.3,0.4,0.4c0.2,0.2,0.3,0.4,0.3,0.7c0,0.2,0.1,0.3,0.3,0.5c0.7,0.5,1.5,0.7,2.4,0.9
				c0.2,0,0.4,0,0.5-0.1c0.2-0.2,0.5-0.2,0.7-0.1c0.2,0.1,0.4,0,0.6,0c0.4,0,0.8,0,1.1,0.1c0.1,0,0.3,0,0.4,0c0.2,0,0.5-0.1,0.7-0.1
				c0.7-0.1,1.5,0,2.2-0.2c0,0,0.1,0,0.1-0.1c0,0,0-0.1,0-0.1c0-0.1,0.8-0.2,0.8-0.3c0-0.1,0-0.2,0.1-0.3c0.1-0.2,0.6,0.2,0.8,0.2
				c0.6-0.2,0.5-0.5,1.1-0.6c0,0,0.5-0.1,0.7-0.3c0-0.1,0.8-0.1,0.8-0.1c0.1-0.1,0.2-0.3,0.4-0.4c0.4-0.2,0.8-0.4,1.1-0.7
				c0.3-0.3,0.6-0.4,1-0.5c0.7-0.2,1-0.4,1.6-0.8c0.4-0.3,0.8-0.4,1.3-0.5c0.6-0.2,1.6-0.8,2-1.3C75,172.8,75.2,172.5,75.1,172.1z"
				/>
		</g>
		<g>
			<path class="st1" d="M133.8,158.5c0.1-0.6,0-1.1-0.2-1.7c-0.1-0.2,0-0.3,0-0.5c0.1-0.5,0.1-1,0.1-1.4c0-0.3-0.1-0.6-0.1-0.9
				c0-0.3-0.1-0.6-0.1-0.9c-0.1-0.4-0.1-0.7-0.3-1.1c0,0,0,0,0,0c0-0.3-0.1-0.6-0.2-0.8c-0.2-0.3-0.2-0.7-0.3-1
				c-0.1-0.4-0.2-0.9-0.4-1.3c-0.1-0.2-0.2-0.4-0.2-0.6c0-0.2-0.1-0.2-0.2-0.3c-0.4-0.3-0.8-0.3-1.2-0.4c-0.2,0-0.3,0-0.4,0.2
				c-0.1,0.2-0.2,0.3-0.1,0.6c0,0.1,0,0.2-0.1,0.3c-0.1,0.1-0.2,0.3-0.3,0.4c-0.2,0.3-0.3,0.6-0.2,1c0.1,0.3,0.1,0.6,0.2,1
				c0,0.3,0.1,0.7,0.1,1c0.1,0.3,0.1,0.6,0.1,0.9c0,0.1,0,0.2,0,0.2c0.1,0.3,0.1,0.6,0.1,0.9c0,0.3,0,0.6,0.1,0.9c0,0.1,0,0.1,0,0.2
				c0,0.5,0,1,0,1.5c0,0.4,0.1,0.7,0.1,1.1c0,0.4,0,0.8,0,1.2c0,0.2,0,0.2-0.3,0.2c-0.4-0.2-0.8-0.4-1.3-0.6
				c-0.4-0.2-0.8-0.3-1.3-0.4c-0.5-0.1-0.8-0.4-1-0.8c-0.2-0.5-0.7-0.9-0.9-1.3c-0.1-0.2-0.4-0.4-0.6-0.5c-0.1,0-0.2-0.1-0.3-0.2
				c-0.5-0.3-1.1-0.3-1.7-0.3c-0.2,0-0.3,0.1-0.3,0.4c0,0.1,0,0.2,0,0.4c0,0.2,0,0.3-0.1,0.4c-0.1,0.1-0.1,0.2-0.1,0.3
				c0.1,0.2,0,0.3-0.1,0.4c-0.3,0.3-0.3,0.6-0.2,0.9c0.1,0.5,0.3,1,0.3,1.5c0,0.1,0,0.3,0.1,0.4c0.2,0.5,0.4,0.9,0.7,1.4
				c0.1,0.2,0.2,0.5,0.3,0.7c0.1,0.3,0.4,0.6,0.5,0.9c0.1,0.3,0.3,0.6,0.6,0.8c0.1,0.1,0.2,0.2,0.3,0.3c0.3,0.4,0.6,0.7,1,1
				c0.3,0.2,0.7,0.3,1,0.5c0.3,0.2,0.6,0.3,0.9,0.3c0.2,0,0.4,0.1,0.6,0c0.2,0,0.3,0.1,0.3,0.2c-0.1,0.3-0.2,0.6-0.3,0.8
				c-0.2,0.3-0.4,0.6-0.5,1c-0.2,0.5-0.4,1-0.7,1.5c-0.3,0.5-0.7,1-1.3,1.2c-0.5,0.2-0.9,0.4-1.4,0.6c-0.3,0.1-0.6,0.2-0.9,0
				c0,0,0,0-0.1,0c-0.1-0.1-0.2,0-0.3,0.1c-0.2,0.2-0.2,0.2-0.4,0.1c-0.2-0.1-0.4-0.2-0.6-0.2c-0.1,0-0.3-0.1-0.4-0.2
				c-0.2-0.2-0.3-0.2-0.4,0c-0.2,0.3-0.2,0.3-0.6,0.2c-0.2,0-0.3,0-0.4,0.1c-0.1,0.1-0.2,0.2-0.3,0.2c-0.2,0-0.4,0.1-0.5,0.2
				c-0.3,0.2-0.6,0.3-0.9,0.3c-0.4,0-0.5,0.3-0.8,0.4c0,0-0.1,0.1-0.1,0.2c0,0.3-0.1,0.6-0.3,0.9c-0.1,0.1-0.1,0.2,0,0.3
				c0,0,0,0,0.1,0c0-0.1,0.1-0.2,0.1-0.3c0,0,0.1,0,0.1,0c0.1,0.4,0.3,0.7,0.4,1c0,0.1,0.1,0.2,0.1,0.3c0.3,0.3,0.5,0.7,0.9,1
				c0.3,0.2,0.6,0.5,0.9,0.7c0.3,0.1,0.6,0.3,0.8,0.5c0.3,0.3,0.8,0.4,1.1,0.5c0.6,0.1,1.2,0.3,1.8,0.1c0.3-0.1,0.5,0,0.8,0
				c0.3,0,0.6-0.2,1,0.1c0.1,0.1,0.2,0.1,0.3,0.2c0.2,0.2,0.2,0.2,0.4,0.1c0.2-0.1,0.5-0.1,0.7-0.2c0.3-0.1,0.7-0.2,1-0.3
				c0.3-0.1,0.6-0.2,0.9-0.3c0.5-0.2,1-0.3,1.4-0.6c0.2-0.1,0.4-0.2,0.6-0.3c0.1,0,0.2-0.1,0.3-0.2c0.2-0.3,0.4-0.6,0.6-1
				c0-0.1,0.1-0.2,0.2-0.2c0.6-0.4,0.7-1.1,1-1.7c0.1-0.2,0.1-0.5,0.1-0.8c0.1-0.4,0.2-0.7,0.1-1.1c0-0.4,0-0.9,0.2-1.3
				c0,0,0-0.1,0-0.1c0.1-0.3,0-0.5,0-0.8c0.1-0.5,0.1-1.1,0.2-1.6c0-0.3,0-0.6,0-0.8c0-0.4-0.1-0.8-0.1-1.3c0-0.4,0-0.9,0.1-1.3
				c0.1-0.1,0-0.3,0-0.4c-0.1-0.4-0.1-0.8,0-1.3c0.1-0.2,0.1-0.5,0.1-0.7c0-0.2,0.1-0.3,0-0.5c-0.1-0.5-0.2-1.1-0.3-1.6
				C133.8,158.9,133.8,158.7,133.8,158.5z"/>
			<path class="st1" d="M148.3,178.1c-0.5-0.9-1.1-1.7-1.8-2.4c-0.1-0.1-0.2-0.3-0.3-0.4c-0.8-1.1-1.7-2.1-2.7-2.9
				c-0.9-0.7-1.8-1.4-2.9-1.9c-0.1-0.1-0.2-0.1-0.3-0.2c-0.4-0.3-0.9-0.7-1.3-1c-0.1-0.1-0.2-0.1-0.3-0.1c-0.5,0-0.9-0.2-1.4-0.2
				c-0.2-0.1-0.4,0.2-0.7,0.2c-0.5,0.1-0.8,0.7-0.7,1.1c0.2,0.6,0.2,1.3,0.3,1.9c0.1,0.3,0.1,0.7,0.3,1c0.2,0.3,0.4,0.6,0.6,0.9
				c0.2,0.4,0.3,0.7,0.2,1.1c0,0.2,0,0.3,0,0.5c0.3,0.5,0.6,1,1,1.5c0.4,0.5,0.8,1,1.1,1.6c0.3,0.5,0.6,1,1.1,1.4
				c0.4,0.4,1,0.7,1.4,1c0.7,0.5,1.5,0.6,2.2,0.9c0.1,0,0.2,0,0.2,0c0.1,0,0.2,0,0.3,0.1c0.3,0.1,0.6,0.2,0.9,0.1
				c0.1,0,0.3,0,0.4,0.1c0.2,0.1,0.4,0.1,0.6,0c0.3-0.2,0.6-0.2,0.9-0.2c0.3,0,0.6-0.1,0.8-0.4c0.2-0.3,0.3-0.6,0.3-1
				c0-0.5,0.2-1,0-1.4C148.8,179,148.5,178.5,148.3,178.1z"/>
			<path class="st1" d="M187.3,172.9c0.1-0.5,0.2-1.1,0.2-1.6c0-0.1,0-0.3,0-0.4c-0.1-0.2-0.1-0.5-0.1-0.7c0.1-0.6,0-1.2,0-1.8
				c0-0.1,0-0.1-0.1-0.2c-0.2-0.3-0.2-0.5-0.1-0.8c0-0.3,0-0.6-0.3-0.8c-0.1,0-0.1-0.1-0.1-0.2c0-0.2-0.1-0.3-0.2-0.5
				c-0.1-0.1-0.1-0.2-0.1-0.3c0-0.1,0-0.2,0-0.3c-0.1-0.4-0.1-0.8-0.1-1.3c0-0.1,0-0.2-0.1-0.3c-0.2-0.3-0.3-0.7-0.6-1
				c-0.3-0.3-0.5-0.7-0.6-1.1c-0.1-0.8,0-1.7,0.1-2.5c0-0.3,0.1-0.6,0.3-0.8c0-0.1,0-0.2,0-0.2c-0.1-0.1-0.2,0-0.2,0.1
				c-0.1,0.1-0.2,0.2-0.3,0.3c-0.2,0.1-0.4,0.3-0.5,0.5c-0.4,0.6-0.7,1.2-1,1.9c-0.2,0.6-0.6,1.2-0.6,1.9c-0.1,0.7-0.2,1.4-0.4,2.2
				c-0.1,0.8-0.1,1.6-0.3,2.3c0,0.1,0,0.2,0,0.3c0,0.1,0,0.2,0,0.3c-0.2,0.5-0.1,1.1-0.2,1.7c0,0.2-0.1,0.3,0,0.5
				c0.1,0.3,0,0.6,0,0.9c-0.1,0.7-0.1,1.4,0,2.1c0,0.2,0,0.5,0,0.7c-0.1,0.4-0.1,0.9-0.1,1.3c0,0.4,0,0.8,0,1.2c0,0.2,0,0.4,0,0.6
				c0.1,0.5,0,1.1-0.2,1.6c-0.1,0.2-0.1,0.4-0.1,0.6c0,0.4,0,0.9-0.2,1.3c-0.1,0.4-0.2,0.8-0.3,1.2c-0.1,0.8-0.5,1.3-1.3,1.6
				c-0.2,0.1-0.4,0.1-0.6,0.2c-0.9,0.3-1.8,0.4-2.8,0.4c-1.1,0.1-2.2,0.1-3.2-0.2c0,0-0.1,0-0.1,0c-0.6-0.1-1.2-0.2-1.8-0.4
				c-0.5-0.2-1-0.5-1.4-0.7c-0.3-0.2-0.7-0.4-0.9-0.8c0-0.1-0.1-0.2-0.2-0.3c-0.3-0.1-0.5-0.4-0.9-0.5c0.7-0.1,1.3-0.3,1.9-0.2
				c0.2,0,0.3,0,0.5,0c0.7-0.1,1.4-0.2,2.1-0.3c0.3,0,0.5-0.2,0.8-0.2c0.4,0,0.7-0.2,1.1-0.3c0.5-0.2,1-0.4,1.6-0.6
				c0.3-0.1,0.6-0.2,0.7-0.5c0.1-0.2,0.3-0.4,0.4-0.6c0.3-0.5,0.5-0.9,0.3-1.5c0-0.1-0.1-0.3-0.1-0.4c-0.1-0.6-0.5-0.9-0.9-1.2
				c0,0-0.1-0.1-0.1-0.1c-0.7-0.2-1.3-0.5-2.1-0.4c-0.4,0-0.8,0-1.1,0.1c-0.3,0.1-0.7,0.2-1,0.3c-0.7,0.2-1.5,0.3-2.2,0.3
				c-0.7,0-1.3,0.1-2,0.2c-0.7,0.1-1.3,0.2-2,0.2c-0.4,0-0.9-0.1-1.3-0.1c-0.1,0-0.1,0-0.2,0c-1.3-0.2-2.5-0.1-3.8,0.1
				c-0.3,0-0.6,0-0.9,0.1c-0.4,0.2-0.8,0.2-1.1,0.3c-0.6,0.1-1.2,0.1-1.8,0.3c-0.2,0-0.4,0.1-0.5,0.2c-0.1,0.1-0.2,0.1-0.4,0.2
				c-0.1,0-0.2,0.1-0.3,0.2c-0.2,0.2-0.5,0.5-0.7,0.4c-0.4-0.1-0.5,0.3-0.8,0.2c0,0,0,0,0,0c-0.1,0-0.2,0-0.3,0.1
				c-0.2,0.2-0.2,0.5-0.3,0.8c-0.1,0.4-0.1,0.8-0.1,1.2c0,0.3,0.1,0.5,0.3,0.6c0.2,0.2,0.5,0.3,0.7,0.5c0.1,0.1,0.2,0.1,0.3,0.1
				c0.3,0.1,0.5,0.2,0.7,0.4c0.4,0.3,0.9,0.5,1.4,0.6c0.3,0.1,0.5,0.2,0.8,0.1c0.8-0.1,1.6-0.1,2.3-0.3c0.2,0,0.3-0.1,0.5,0
				c0,0.2-0.1,0.2-0.2,0.2c-0.3,0.1-0.7,0.3-1.1,0.3c-0.3,0-0.7,0.1-0.9,0.2c-0.5,0.2-0.9,0.2-1.4,0.2c-1-0.1-1.9,0-2.8,0.4
				c-0.4,0.2-0.8,0.2-1.2,0.2c-0.6,0-1.2-0.1-1.7,0.3c-0.1,0.1-0.2,0.2-0.4,0.2c-0.3,0.1-0.4,0.3-0.6,0.5c-0.2,0.3-0.3,0.6-0.2,0.9
				c0.1,0.2,0.1,0.3,0.1,0.5c0,0.2,0,0.4,0.1,0.5c0.3,0.5,0.4,1.2,0.9,1.7c0.2,0.2,0.4,0.5,0.6,0.6c0.3,0.2,0.4,0.6,0.2,0.9
				c0,0.1-0.1,0.2,0,0.3c0.3-0.1,0.6,0,0.9,0.2c0.1,0,0.2,0,0.3,0c0.4-0.1,0.8,0,1.2-0.2c0.1,0,0.1,0,0.2,0c0.3,0,0.5-0.1,0.7-0.3
				c0.1-0.1,0.3-0.2,0.5-0.2c0.5,0,0.9-0.3,1.3-0.4c0.1,0,0.1-0.1,0.1-0.1c0.1-0.2,0.4-0.3,0.6-0.5c0.4-0.3,0.7-0.5,1.1-0.8
				c0.1-0.1,0.2-0.2,0.2-0.3c0.3-0.4,0.7-0.6,1.1-0.8c0.3-0.1,0.6-0.3,0.8-0.5c0.3-0.3,0.5-0.6,0.9-0.8c0.2-0.1,0.4-0.2,0.5-0.4
				c0.1,0.2,0.2,0.4,0.2,0.6c0.4,0.8,0.9,1.5,1.6,2.1c0.3,0.2,0.6,0.4,0.8,0.6c0.9,0.6,1.8,1.1,2.9,1.3c1.1,0.2,2.3,0.4,3.5,0.4
				c0.1,0,0.3,0,0.4,0c0.6,0.1,1.1,0.1,1.7,0c0.8-0.1,1.6-0.1,2.4-0.1c0.4,0,0.8,0,1.3-0.1c0.2-0.1,0.5-0.2,0.7-0.2
				c0.2,0,0.3,0,0.4-0.1c0.3-0.1,0.6-0.2,0.9-0.2c0.4,0.1,0.7,0,1-0.3c0.1-0.1,0.1-0.2,0.3-0.2c0.3-0.1,0.6-0.3,0.9-0.4
				c0.2-0.1,0.4-0.2,0.5-0.4c0.2-0.3,0.5-0.6,0.8-0.7c0.1,0,0.1-0.1,0.1-0.1c0.2-0.3,0.4-0.5,0.7-0.6c0.3-0.1,0.4-0.4,0.5-0.6
				c0.1-0.3,0.2-0.5,0.5-0.6c0.1,0,0.2-0.1,0.2-0.2c0.2-0.4,0.4-0.8,0.7-1.2c0-0.5,0.5-0.9,0.6-1.4c0,0,0.1-0.1,0.1-0.1
				c0.1-0.2,0.2-0.3,0.2-0.6c0-0.3,0.1-0.5,0.3-0.8c0.3-0.5,0.5-1,0.3-1.6c-0.1-0.3-0.2-0.7,0-1.1c0.1-0.3,0.2-0.6,0.1-0.9
				c-0.1-0.3,0-0.5,0.1-0.8c0.1-0.4,0.3-0.9,0.2-1.4c0-0.5,0-0.9-0.1-1.4C187.3,173.2,187.3,173.1,187.3,172.9z"/>
			<path class="st1" d="M152,173.5c0.7,0.1,1.4,0.2,2.1,0.2c0.8,0.1,1.7,0.2,2.5,0.2c0.3,0,0.6-0.1,0.9,0c0.5,0,0.9-0.1,1.4-0.2
				c0.4-0.1,0.8-0.3,1.3-0.3c0.1,0,0.2,0,0.2-0.1c0.4-0.1,0.7-0.3,1.1-0.5c0.3-0.2,0.7-0.3,0.9-0.7c0.1-0.2,0.3-0.3,0.4-0.5
				c0.2-0.1,0.3-0.3,0.4-0.5c0-0.1,0.1-0.2,0.2-0.2c0.5-0.2,0.5-0.3,0.3-0.7c0,0,0-0.1-0.1-0.1c-0.1-0.2-0.1-0.3,0.1-0.5
				c0.1-0.1,0.2-0.1,0.2-0.3c-0.4,0.3-0.6,0-0.8-0.3c0,0,0,0-0.1-0.1c-0.3-0.3-0.6-0.4-0.9-0.5c-0.4-0.2-0.9-0.2-1.3-0.2
				c-0.4,0-0.7,0.1-1.1,0.1c-0.4,0-0.7,0.1-1.1,0.1c-0.1,0-0.2,0-0.3-0.2c0-0.1,0-0.2-0.1-0.3c0-0.4,0-0.7,0-1.1
				c0-0.4,0.2-0.7,0.6-0.8c0.1,0,0.3-0.1,0.4-0.1c0.2,0,0.4,0,0.5-0.1c0.3-0.2,0.7-0.3,1-0.5c0.2-0.1,0.5-0.3,0.7-0.4
				c0.3-0.1,0.5-0.3,0.5-0.7c0-0.2,0.1-0.4,0.3-0.4c0.1,0,0.2-0.1,0.3-0.2c0.1-0.2,0.2-0.3,0.4-0.4c0.3-0.2,0.3-0.6,0-0.8
				c-0.5-0.4-1.1-0.5-1.6-0.7c-0.2-0.1-0.4-0.1-0.5-0.2c-0.1-0.1-0.2-0.1-0.3-0.1c-0.8,0-1.5-0.2-2.3-0.2c-0.4,0-0.5-0.1-0.5-0.5
				c0-0.4-0.1-0.8-0.2-1.2c0-0.1-0.1-0.2-0.1-0.2c0-0.4-0.3-0.6-0.6-0.7c-0.3-0.1-0.5-0.1-0.8-0.1c-0.1,0-0.3,0.1-0.3,0
				c-0.2-0.2-0.4-0.2-0.6-0.2c-0.4,0-0.4,0-0.6,0.4c-0.1,0.2-0.1,0.5-0.1,0.7c-0.1,0.4-0.2,0.8-0.2,1.2c0,0.2,0,0.4,0,0.5
				c0,0.2-0.1,0.3-0.3,0.2c-0.5-0.1-1-0.1-1.5-0.4c-0.4-0.2-0.7-0.4-0.9-0.7c-0.2-0.3-0.5-0.3-0.8-0.3c-0.2-0.1-0.3,0.1-0.4,0.2
				c0,0-0.1,0.1-0.1,0.1c-0.3,0.2-0.6,0.3-1,0.3c-0.3,0-0.5,0.1-0.6,0.3c0,0-0.1,0.1-0.1,0.1c-0.1,0.2-0.2,0.3-0.2,0.5
				c0,0.1,0,0.2-0.1,0.2c-0.3,0.1-0.4,0.3-0.6,0.5c-0.3,0.2-0.5,0.6-0.6,0.9c-0.1,0.4-0.1,0.8,0.3,1.1c0.3,0.3,0.6,0.5,1,0.7
				c1.3,0.6,2.6,1,4,1.2c0.3,0,0.5,0,0.8,0c0.3,0,0.4,0.1,0.4,0.4c0,0.2,0,0.3,0,0.5c0,0.4-0.2,0.8-0.2,1.2c0,0.2-0.1,0.3-0.4,0.3
				c-0.2,0-0.3,0-0.5,0c-0.5,0.1-1,0.1-1.5,0c-0.2,0-0.5,0-0.7,0c-0.6,0.1-1.2,0.1-1.8,0.2c-0.4,0.1-0.6,0.2-0.6,0.7
				c0,0.1,0,0.2-0.1,0.2c-0.3,0.2-0.4,0.4-0.5,0.7c-0.2,0.3-0.2,0.6-0.1,1c0.1,0.2,0.1,0.3,0.1,0.5c0,0.2,0.1,0.3,0.3,0.3
				c0.3,0.1,0.5,0.2,0.7,0.3c0.3,0.2,0.6,0.3,1,0.3c0.6-0.1,1.1,0,1.7,0.2C151.3,173.3,151.6,173.5,152,173.5z"/>
			<path class="st1" d="M140.7,164.6c0.1,0,0.1,0,0.3,0.1c0.6,0.1,1.2,0,1.9,0c0.3,0,0.6-0.1,0.8-0.4c0.1-0.2,0.3-0.4,0.4-0.6
				c0.2-0.6,0.4-1.2,0.7-1.7c0.4-0.6,0.5-1.3,0.6-2c0.1-1-0.1-2-0.4-2.9c-0.1-0.4-0.3-0.8-0.4-1.2c0-0.3-0.2-0.5-0.3-0.7
				c-0.3-0.4-0.6-0.9-0.9-1.4c-0.5-0.9-1-1.7-2-2c-0.1,0-0.2-0.1-0.3-0.1c-0.5-0.3-1-0.3-1.5-0.2c-0.3,0.1-0.7,0.1-1,0.1
				c-0.5,0-1.1,0.4-1.2,0.9c-0.1,0.2-0.1,0.3-0.3,0.4c-0.3,0.1-0.4,0.2-0.1,0.5c0.1,0.1,0.3,0.3,0.3,0.5c0.5,1.2,0.6,2.4,0.2,3.7
				c-0.2,0.8-0.5,1.6-0.5,2.5c0,0.3-0.1,0.6-0.3,0.8c-0.2,0.3-0.4,0.6-0.5,0.9c-0.1,0.1-0.1,0.3,0,0.4c0.2,0.2,0.5,0.5,0.8,0.4
				c0.5-0.1,0.8,0.2,1.1,0.5C138.8,163.8,139.6,164.6,140.7,164.6z"/>
			<path class="st1" d="M151.9,156.6c0,0,0.1,0.1,0.1,0.1c0.4,0.3,0.6,0.6,0.8,1c0.2,0.5,0.5,0.8,1,0.8c0.1,0,0.2,0,0.2,0.1
				c0.5,0.3,1,0.4,1.5,0.6c0.5,0.1,0.9,0.3,1.4,0.2c0.2,0,0.4,0,0.6,0c0.2,0,0.4,0,0.7,0c0.5-0.1,1.1-0.2,1.6-0.1c0.2,0,0.4,0,0.6,0
				c0.3,0,0.6-0.1,0.9-0.2c0.3-0.1,0.6-0.2,0.9-0.2c0.6-0.1,1.1-0.5,1.7-0.8c0.3-0.1,0.5-0.4,0.8-0.5c0.9-0.5,1.6-1.2,2.4-1.8
				c0.6-0.4,1-1,1.6-1.4c0.7-0.5,1.4-0.9,1.9-1.5c0.1-0.1,0.2-0.2,0.4-0.2c0.1,0,0.3,0,0.3-0.2c0.1-0.3,0.3-0.6,0.6-0.8
				c0.1-0.1,0.1-0.2,0.1-0.3c0-0.1,0-0.2,0.1-0.3c0.1-0.2,0.1-0.4,0-0.6c-0.1-0.5-0.4-0.9-0.4-1.4c-0.1-0.6-0.6-0.9-1.1-0.5
				c-0.3,0.1-0.5,0.3-0.8,0.4c-0.3,0.1-0.3,0.1-0.4-0.1c-0.1-0.1-0.2-0.2-0.3-0.1c-0.3,0.4-0.7,0.5-1,0.7c-0.1,0.1-0.3,0.2-0.5,0.2
				c0-0.2,0-0.3,0-0.4c-0.1-0.5,0.1-0.9,0.1-1.3c0-0.2,0.1-0.4,0.3-0.4c0.5-0.1,1-0.3,1.5-0.4c0.5-0.1,1.1-0.3,1.6-0.4
				c0.6-0.2,1.2-0.4,1.7-1c0,0,0.1-0.1,0.1-0.1c0.7-0.3,1-0.9,1.4-1.5c0.1-0.1,0.1-0.3,0-0.4c-0.1-0.2-0.1-0.5-0.1-0.7
				c0-0.6-0.3-0.9-0.7-1.1c-0.3-0.2-0.7-0.3-1-0.5c-0.1-0.1-0.3-0.2-0.4-0.1c-0.4,0.1-0.7,0-1.1-0.2c-0.5-0.2-0.8-0.1-1.2,0.1
				c-0.2,0.1-0.3,0.2-0.5,0.2c-0.6,0.2-1.1,0.3-1.7,0.3c-0.5,0.1-0.7,0.1-0.9-0.5c-0.2-0.4-0.3-0.9-0.3-1.3c0-0.5-0.2-0.7-0.6-0.8
				c-0.1,0-0.2-0.1-0.3-0.1c-0.2-0.1-0.4-0.1-0.6-0.3c-0.2-0.2-0.4-0.3-0.7-0.1c0,0-0.1,0-0.2,0c-0.4,0.1-0.5,0.2-0.5,0.6
				c-0.1,0.5-0.1,1-0.3,1.5c-0.1,0.2-0.1,0.4-0.1,0.5c-0.1,0.7-0.1,1.3-0.1,2c0,0.4-0.1,0.6-0.5,0.7c-0.1,0-0.3,0.1-0.4,0.1
				c-1.2,0.1-2.3,0.2-3.5,0.3c-0.3,0-0.6,0.1-0.9,0c-0.6-0.1-1.2,0-1.7,0.1c-0.3,0-0.5,0-0.8,0c-0.1,0-0.3-0.1-0.4,0.1
				c-0.1,0.2-0.3,0.1-0.5,0.1c-0.1,0-0.2,0-0.3,0c-0.1,0-0.2,0.1-0.1,0.2c0.3,0.3,0.1,0.4-0.1,0.6c-0.2,0.2-0.2,0.4,0,0.6
				c0.3,0.3,0.6,0.7,0.9,1c0.4,0.4,0.9,0.6,1.3,0.9c0,0,0.1,0,0.1,0.1c0.7,0.2,1.3,0.4,2,0.3c0.4,0,0.7-0.1,1.1,0
				c1-0.1,1.9,0.1,2.9,0.1c0.4,0,0.5,0.1,0.4,0.5c-0.1,0.7-0.2,1.4-0.3,2.1c0,0.1,0,0.3-0.1,0.4c0,0.1-0.1,0.2-0.2,0.2
				c-0.2,0.1-0.4,0.1-0.6,0.2c-0.6,0.1-1.3,0.1-1.9,0.1c-0.2,0-0.4,0-0.5-0.1c-0.2-0.2-0.5-0.2-0.8-0.3c-0.3-0.1-0.7-0.1-1-0.3
				c-0.2-0.1-0.3-0.2-0.6-0.3c-0.2,0-0.4-0.1-0.5-0.2c-0.4-0.4-0.9-0.4-1.4-0.1c-0.1,0-0.2,0.1-0.3,0.1c0-0.2,0.2-0.5,0.1-0.7
				c-0.1,0-0.2,0.1-0.2,0.1c-0.6,0.4-1,0.9-1.5,1.3c-0.1,0.1-0.2,0.2-0.1,0.3c0,0.1,0.1,0.2,0,0.3c-0.3,0.5-0.7,1-1,1.5
				c-0.1,0.2-0.2,0.3-0.3,0.5c-0.1,0.4-0.2,0.8-0.3,1.2c-0.1,0.3-0.1,0.7,0.2,0.9C151.3,155.9,151.6,156.2,151.9,156.6z"/>
			<path class="st1" d="M168,159.3c-0.2,0.1-0.5,0.4-0.7,0.4c-0.3,0.1-0.4,0.4-0.5,0.6c-0.1,0.2-0.1,0.3,0.1,0.5
				c0.1,0.1,0.1,0.2,0.2,0.2c0.3,0.3,0.6,0.7,1,0.9c0.9,0.4,1.7,0.5,2.7,0.5c0.3,0,0.6-0.1,1-0.1c0.3,0,0.4,0,0.4,0.3
				c0,0.1,0,0.2,0,0.4c0,0.6,0,1.3,0.1,1.9c0,0.2,0,0.3-0.3,0.2c-0.2,0-0.3-0.1-0.5,0c-0.6,0.2-1.2,0.4-1.7,0.7
				c-0.3,0.2-0.7,0.3-1,0.6c-0.3,0.2-0.6,0.4-0.9,0.6c-0.1,0.1-0.2,0.1-0.3,0.2c-0.4,0.4-0.8,0.7-1.2,1c-0.3,0.2-0.6,0.3-0.7,0.7
				c0,0,0,0.1-0.1,0.1c-0.1,0.1-0.3,0.1-0.4,0.3c-0.1,0.2,0.1,0.3,0,0.5c-0.1,0.2,0,0.4,0.1,0.6c0.2,0.4,0.4,0.8,0.6,1.2
				c0.1,0.1,0.1,0.2,0.2,0.3c0.2,0.1,0.3,0.1,0.5,0.2c0.4,0.2,0.9,0.1,1.3,0.2c0.3,0.1,0.5,0.1,0.8,0.1c0.5-0.1,1-0.1,1.5-0.2
				c0.6-0.1,1.3-0.3,1.7-0.9c0.1-0.1,0.2-0.2,0.3-0.2c0.4-0.1,0.8-0.3,1.2-0.5c0.1,0,0.2-0.1,0.3-0.2c0.2-0.2,0.4-0.3,0.6-0.5
				c0.6-0.4,1.2-0.9,2-1.2c0,0,0.1,0,0.1-0.1c0.2-0.1,0.4-0.2,0.7-0.2c0.3,0,0.4-0.1,0.5-0.4c0.2-0.5,0.5-0.8,0.9-1.1
				c0.3-0.1,0.6-0.2,0.8-0.5c0.1-0.1,0.2-0.1,0.3-0.1c0.1,0,0.2-0.1,0.3-0.1c0.1,0,0.7-1,0.7-1c0-0.2,0-0.5,0-0.7
				c0-0.2-0.1-0.3-0.3-0.4c-0.1-0.1-0.2-0.2-0.3-0.3c-0.1-0.2-0.2-0.3-0.3-0.5c-0.1-0.2-0.3-0.3-0.5-0.2c-0.4,0-0.6,0.2-0.7,0.6
				c0,0.1-0.1,0.3-0.2,0.3c-0.2-0.1-0.3,0.1-0.4,0.2c-0.1,0.1-0.2,0.2-0.3,0.2c-0.2,0.1-0.2,0.1-0.2-0.1c-0.1-0.7-0.1-1.3-0.2-1.9
				c-0.1-0.5,0-1,0.2-1.5c0.2-0.4,0.4-0.6,0.7-0.7c0.3-0.1,0.6-0.3,0.8-0.4c0.4-0.3,0.8-0.5,1-0.9c0.2-0.6,0.4-1.2,0.3-1.9
				c0-0.1,0-0.2-0.1-0.3c-0.3-0.2-0.6-0.5-0.9-0.6c-0.3-0.1-0.5-0.2-0.6-0.4c-0.1-0.3-0.4-0.3-0.7-0.2c-0.1,0.1-0.3,0.1-0.4,0.2
				c-0.2,0.1-0.4,0-0.6-0.1c-0.1-0.1-0.2-0.2-0.2-0.4c-0.1-0.3-0.4-0.5-0.7-0.6c-0.2-0.1-0.4-0.2-0.4-0.4c-0.2-0.5-0.6-0.7-1-0.7
				c-0.4-0.1-0.8-0.2-1.2-0.4c-0.2-0.1-0.3-0.1-0.4,0.1c-0.1,0.1-0.1,0.2-0.1,0.3c-0.1,0.3-0.4,0.7-0.4,1c0,0.7-0.1,1.3-0.1,2
				c0,0.3,0,0.6,0,0.9c0,0.2-0.1,0.3-0.3,0.4c-0.8,0.4-1.7,0.6-2.6,1C168.9,158.9,168.5,159.1,168,159.3z"/>
		</g>
	</g>
</g>
<g>
	<g>
		<g>
			<path class="st1" d="M233.8,96.8c-0.7-4.9-1.6-10.6-4.3-14.8c-0.4-1.7-2-3.5-3-5c-0.2-0.9-1-1.2-1.5-1.9c-0.3-0.9-2-0.6-2.1-1.5
				c-0.1-0.4-1.1-0.5-1.4-1c-0.8-0.7-1.4-1.8-2.7-1.6c0.1-0.6-0.7-0.7-1.1-0.7c-0.7,0-1.1-0.6-1.7-0.4c-0.3,0.1-0.3,0.1-0.3-0.1
				c-0.5-0.3-1.2-0.1-1.7-0.2c-2.3,0-5-0.1-7.3,0.8c-1-0.7-1.4,0.3-1.9,0.8c-0.9-0.5-2.5,0.8-2.9,1.5c-0.8,0.9-2.4,1.5-3.4,2.1
				c-0.5-0.8-1.4-1.1-2.1-1.6c-0.3-0.6-0.8-0.5-1.1-0.5c-0.5-0.6-1.3-1.2-2.3-1.1c-0.6,0-1-0.8-1.8-0.8c-4.8,0.1-10.9,0.7-14.1,4
				c-3.3,1.2-9.9,12.5-9.6,15.6c-0.2,0.1-0.3,0.6-0.1,0.8c-0.3,0.3-0.3,1-0.1,1.2c-0.5,0.6-0.1,1.4-0.5,1.9c0,0,0.1,0.4,0.1,0.4
				c-0.4,0.6-0.4,1.3-0.4,1.9c0.2,1-0.8,1.6-0.3,2.6c-0.5,0.2-0.3,0.8-0.1,1.1c-0.2,0.6-0.4,1.2-0.1,1.7c0.4,1.5,0,3.3,0.9,4.6
				c-0.6,0.6-0.1,1.5,0,2.2c0.3,0.9,0.1,1.8,0.7,2.5c1,3,1.3,5,4.9,4.5c0.2,0.7,1.7,0.3,1.2-0.4c0.5,0.4,1.3,0.8,2,0.3
				c0.4-0.3,1.5-0.5,1.3-0.7c1.7-1.1,2.6-5.7,2.2-7.7c0.6-0.5,0.9-1.7,0.6-2.4c0.5-1.9,0.5-4.6,1.6-7.3c0.7-2.8,1.1-5.8,2.8-8.2
				c0.3-4.8,6.9-5.3,8.2-1.2c-0.1,6.7,0.8,13.6,1.6,20.1c0,1.3,0.3,3.1,1.6,3.7c-0.6,0.3,0,1.5,0.6,1.1c1.2-0.6,2.8-0.1,4-0.8
				c0.2,0.7,0.9,0.4,1.1-0.1c0.6,0.2,1.4,0.6,2,0.6c1.1-0.3,1.5,1.2,2.5,0.5c0.5-0.8,1.8-0.3,1.7-1.2c0.6-0.2,0.7-0.8,0.6-1.3
				c1.1-0.9,0.2-2.2,0.3-3.2c0.6-1,0.1-2,0.2-3c0.4-0.4,0-0.7,0-1.2c0.2-3.1-0.3-7-0.7-10c-2.2-7,4.4-13.2,8.7-5.7
				c0.5,1.6,1.3,3.1,1.6,4.8c0.2,0.7,0,1.6,0.5,2.2c-0.1,2.4,0.3,4.6-0.1,7c-0.2,1-0.2,2.1,0.2,3.2c-0.2,0.6,0.1,0.8,0.4,1
				c-0.1,0.7-1.1,1.9,0.1,2.1c0,0.1,0,0.3,0.1,0.4c-0.6,1.2,0.7,2.3-0.1,3.6l0.5,0.3c0.1-0.1,0.3,0.1,0.3,0.1
				c0.3,0.2,0.4,1.8,1.4,1.5c1.9,0.4,3.8-1.1,5.7-0.8c0.3,0.1,0.7-0.1,0.7-0.5c1.2,0.4,2.5,0.8,3.8,0.1c0.7,0.1,0.7-0.4,0.9-0.7
				c1.3-0.6,1.6-1.4,1.3-2.5C233.4,105.8,234.4,101.3,233.8,96.8z M195.1,72.9l0,0.2C195.1,73,195.1,73,195.1,72.9z"/>
			<path class="st1" d="M277.3,68.8c0-0.9-0.3-1.2-1-1.6c-0.3-0.2-0.7-0.6-1.3-0.2c-0.6,0.4-1.2-0.2-1.9-0.1
				c-0.1-1.1-3.2-0.8-3.7-0.6c-1.4,0.2-3.3-0.5-4.4,0.4c0,0,0.1,0.1,0.1,0.1c-0.3,0-0.4,0.4-0.4,0.6c-0.5,0.2-1.3,1.1-0.8,1.6
				c-0.5,0.2-0.6,0.7-0.3,1.1c-0.6,0.1-0.6,0.6-0.6,0.7c0,1.2-1.1,1.6-1.1,2.7c-1.2,4.6-0.1,5.7-5.6,5.8c-0.4-0.4-1.1,0-1.5-0.6
				c-1.1-0.6-2.8-0.3-4.1-0.7c-1.6-0.6-2.7-2.7-3.4-4c-0.3-0.8-0.5-1.6-1.3-2.1c0-0.5-0.6-1-0.6-1.4c0.1-0.2,0-0.3-0.1-0.4
				c0,0-0.1-0.1-0.1-0.1l-0.3-0.3c0.3-0.5-0.3-0.7-0.7-0.7c-0.3-3.2-6.3-1.6-8.5-1.5c-0.5,0.1-1.1-0.1-1.4,0.4
				c-0.7,0.8-2.3,1.3-1.9,2.7c-1.4,2.3-0.6,5.5,0.2,8c0.3,0.7,1.1,1.4,0.7,2.2c-0.1,0.1,0,0.2,0,0.3c-0.1,0.5,0.3,0.8,0.5,1.1
				c0.7,0.9,0.9,2.1,1.7,3c2.8,3.3,7.1,5.8,11.3,6.7c0,1.8-0.5,3.7,0.3,5.4c-0.1,2,1,4.1,0.7,6.1c-0.2,1.2-0.6,2.5,0.1,3.6
				c0.1,1.8,0.3,3.5,0.9,5.2c-0.5,0.5,0.4,1.1,0.9,0.8c-0.1,0.6,0.5,1.7,1.1,1.6c0.9-0.5,1.8-0.8,2.9-0.8c0.9-0.1,1.7-0.4,2.6-0.6
				c1,0.1,2.1,0.8,3.1,0.4c0.3,0.4,0.7,0.2,1,0.2l0.2-0.5c-0.2-0.1-0.4-0.2-0.5-0.2c0.1-0.2,0.6-0.2,0.8-0.2
				c0.8,0.5,1.6-0.2,1.5-0.9c0.5,0.1,0.8-0.5,0.5-0.9c0.7-0.2,0.2-1,0.2-1.4c0.2-3.2,0.6-5.7,0.2-8.7c-0.4-1.8-1-3.4-1.2-5.1
				c-0.3-0.9-1.1-3.3-0.3-3.6c3.1-0.8,6.2-2,8.3-4.3c0.4-0.6,1.4-0.6,1.5-1.6c1.3-0.6,1.7-2.1,2.5-3.2c0.3-0.4,0.9-0.9,0.7-1.6
				c0.5-0.1,0.5-0.6,0.5-0.8c0.5-2.6,1.7-5.3,1.5-7.9c0.9-0.5-0.1-1.2,0.5-1.8C277.7,70.4,278.3,69.6,277.3,68.8z"/>
		</g>
		<g>
			<path class="st1" d="M147.2,105.4c-0.1-1-0.2-2.1-0.2-3.1c-0.2-0.5,0.3-1.3-0.2-1.5c-0.2-0.2-0.2-0.5-0.2-0.8
				c0.1-1.1-0.4-1.8-0.6-2.8c0.8-0.8-0.8-1.7-0.4-2.6c0.2-0.8-0.7-1.1-0.7-1.7c0-1-0.5-1.4-1.2-1.7c0.3-0.5,0-0.9-0.3-1.3
				c-0.1-0.9-0.7-1.1-1.3-1.5c-0.7-1.4-2-3.4-3.6-3.5c-0.6-0.3-0.7-1.4-1.6-1.5c-0.1,0-0.1,0-0.1-0.2c0.1-0.4-2.4-1.1-2.9-1.7
				c-0.3-0.3-0.5,0-0.7,0.1c0-0.3-0.2-0.5-0.5-0.5c-0.5,0.1-1-0.6-1.7-0.4c-1.3,0.3-2.1-1.2-3.4-0.7c-0.3-0.6-0.7-0.4-1.1-0.5
				c-0.8-0.2-1.6-0.1-2.4-0.2c-0.4,0.1-0.4,0.4-1,0.3c-0.6-0.1-1.3,0.4-2,0.3c-0.8,0.2-1.6-0.3-2.2,0.4c-0.3-0.3-0.6-0.2-0.7,0.2
				c-0.2,0-0.6,0-0.7,0.2c-0.9-0.5-1.5,1-2.4,0.8c-0.4-2.8-0.5-5.8-1.8-8.4c0.2-0.8-0.1-1.4-0.7-1.7c0.4-0.7-0.2-1.7-1-1.8
				c0.1-0.8-3-0.7-3.7-0.8c-0.5,0-1-0.5-1.5-0.3c-0.8,0.2-1.6-0.4-2.4,0.1c-1-0.2-1.9-0.1-2.6,0.5c-3.3,2.8-2.5,7.7-2.7,11.7
				c0.3,3.2-0.1,6.4,0.7,9.4c-0.4,0.6,0.3,1.6,0,2.3c-0.3,0.8,0.2,1.6,0.3,2.4c0.3,0.8-0.3,1.8,0.2,2.5c0.3,0.7,0.2,1.6,0.1,2.4
				c-0.1,0.2-0.2,0.6,0.2,0.9c0.6,1,0.2,2.6,0.6,3.8c1.1,3.7,0.1,15.7,2.5,17.5c-0.6,0.7,0.4,2.4,1.1,1.4c0.3,0,0.6,0,0.9-0.2
				c-0.1,0.9,1.3,0.7,1.4-0.2c0.9,0.3,1.8-0.2,2.6,0.1c0.7,0,1.2-0.5,2.1-0.1c1.4,0.3,4.1,0.4,3.9-1.5c0.5-0.1,1-0.2,0.7-0.8
				c0.3-5.8,0-12.1,0.9-17.9c0.5-7.8,10.6-9.2,12.7-1.7c1.6,5,1.5,10.5,1.8,15.3c-0.2,0.4-0.4,1,0.2,1.3c0.2,0-0.1,3.6,1.5,2.5
				c0,1,1.2,0.6,1.8,0.5c0.6-0.2,1.3,0.3,1.6-0.2c-0.1,0.4,0.4,0.7,0.7,0.5c0.1,0,0.2,0,0.3,0c-0.2,0.8,0.6,0.6,1,0.6
				c0.7-0.1,1.5,1.2,2.1,0.7c0.1,0.3,2.4,0.2,2.6,0.3c1.4,0.8,0.9-1.6,1.8-1.6c0.3-0.1,0.4-0.3,0.4-0.6c-0.3-0.7,0.7-1.4,0.5-2.2
				c0.3-0.5,0.5-1,0.4-1.6c0.9-0.2,0.4-1.1,0.8-1.8c0.5-2.7,0.4-5.9,0-8.5C147.4,106,147.3,105.6,147.2,105.4z"/>
			<path class="st1" d="M95.8,94.9c-0.5-0.8,0-1.9-0.7-2.4c0.1-0.1-0.1-0.5-0.1-0.5l-0.2-0.1c0.4-0.5-0.4-1-0.3-1.7
				c0-1.1-0.9-0.9-1.2-1.7c-0.1-1.2-0.8-2-1.4-2.8c-0.3-0.7-0.6-1.3-1.3-1.7c-0.8-0.5-0.9-2-2-2.3c-0.2-1.3-1.9-2.1-2.8-2.9
				c-0.2-0.8-0.9-0.7-1.2-1.1c-0.1-0.2-0.7-0.5-0.9-0.2c0-0.3-0.3-0.7-0.7-0.7c-1.2-0.9-2.6-1.8-4.2-2c-0.8-0.2-1.5-0.7-2.3-0.8
				c-1.5-0.8-2.5,0.7-3.9,0.2c-2.1-0.4-4.4,0.5-6.5,0.9c-1,0.7-2.2-0.3-3.1,0.5c-0.3,0.7-1.3,0.5-2,0.6c-1.3,0.3-3.8,0.5-4,2.3
				c-0.3,0-1.7,0.4-2,0.7c-0.7,0.2-0.5,1-1,1.5c-1.7,1-3.3,2.8-3.4,4.8c0,0.4,0,0.5-0.4,0.5c-0.2,0-0.8,0.9-0.9,1
				c-0.4,0.2-0.4,0.4-0.3,0.6c0,0.5-1,1.1-1,1.8c0,0.3-0.4,0.4-0.2,0.7c0,0.1,0,0.1-0.1,0.2c-0.5,0.6-0.7,1.1-0.4,1.6
				c-1,2.1-1.3,4.6-1.6,7c-0.1,0.6-0.5,1.2,0.2,1.8c-0.5,0.7-0.5,1.9-0.1,2.5c-0.3,1.1,0.7,2.1,0.9,3c-0.4,1.9,0.6,4.3,2,5.9
				c1.1,1.5,0.6,3.4,2.5,4.3c-0.8,1.6,2.1,2.2,3,2.9c0.6,0,0,0.6,0.7,0.7c1.1,0.6,1.9,1.9,3.2,1.5c-0.5,0.9,0.5,1,1.1,1.3
				c0.4,0.2,2.1,1.2,2.9,0.8c0,0.5,0.5,0.9,1,0.6c0.1,0.5,0.5,0.8,1,0.5l0,0.2c0.9,0.1,1.9,1.1,2.7,0.5c0.3,0.2,0.7-0.2,0.7-0.3
				c0.7,0.3,4.1,0.7,4.9,0.1c0.7-0.7,0.5,0.5,1.3,0.3c1.3-0.5,3-0.3,4.1-1.1c0.4,0.2,0.8,0,1.1-0.2c1.2-0.5,2.6-0.4,3.5-1.6
				c1.1-0.6,4-1.7,3.9-3.3c0.4,0,1-0.3,0.9-0.8c0.8,0,1.1-0.5,0.8-1.2c0.4,0,0.9,0,1.2-0.6c0.4-1.1,2.3-1.5,2-2.9
				c0.6,0.1,1-0.7,1.1-1c0.1-0.7,0.7-1.2,0.8-1.8c1-0.2,1.9-3,1.8-3.9c0.5-0.3,0.7-0.8,0.6-1.4c0-1.1,0.7-2.2,0.3-3.3
				c-0.3-0.8,0-1.3,0.3-2C96.3,98.6,96.6,96.8,95.8,94.9z M77.1,103.1C77.1,103.1,77.1,103.1,77.1,103.1c-1.9,0.8-2.1,3.1-4.5,3.3
				c-1.9,0.8-3.1-0.5-5-0.6c0.1-0.4-0.2-0.6-0.6-0.6c0.3-0.7-2.1-1.9-2.7-2.4c0.8-0.5,0-1.6-0.7-1.1c-4.6,1,0.3-7.6,1.3-9.3
				c0.5-1.2,1.6-1.5,2.9-1.7c2.2-0.2,4.9-2.1,6.8-0.6c0.9,1.1,1.5,2.3,2.4,3.2c1.3,1.4,1,3.1,1.8,4.6c-0.8,1.5,0.2,3.1-1.2,4.5
				C77.3,102.5,77,102.7,77.1,103.1z"/>
		</g>
		<g>
			<path class="st1" d="M282.4,98.5c0.2-0.5,0.6-0.7,1-1.1l0.9-0.8c0.2-0.1,0.3-0.2,0.5-0.3l0.3-0.2l1.3-0.2c0.4,0,0.9,0,1.2,0.1
				l2.3,0.5c0.3,0.1,0.6,0.2,0.9,0.3L291,97l1.5,0.6c0.6,0.4,1.1,0.9,1.4,1.5l0.2,0.3l0.3,1l0.1,1.9l0,0.8c0,0.2,0,0.4,0,0.6
				l-0.3,1.4l-0.3,1.1l0,0.2c-0.1,0.6-0.2,1-0.4,1.4l-0.2,0.5c-0.1,0.3-0.4,0.7-0.6,0.9l-0.2,0.1l-1.7,1.1l-0.3,0.1
				c-0.4,0.2-0.8,0.4-1.3,0.4l-0.7,0.1c-0.4,0.1-0.7,0-1,0l-1.1-0.1l-0.5-0.2c-0.1,0-0.4-0.1-0.6-0.2l-0.5-0.3l-2-0.9
				c-0.5-0.3-0.9-0.5-1.3-1l-0.4-0.6c-0.2-0.4-0.4-0.6-0.6-1l-0.1-0.2l-0.1-1.2c0-0.8,0.1-1.3,0.3-1.7l0.3-1.2l0.2-0.9l0.2-0.5
				c0.1-0.3,0.2-0.4,0.3-0.7l0.8-1.6L282.4,98.5z M284.4,89l0.4-0.8l0.2-2l0.2-1.2l0.4-1.8l0-0.7l0.3-1.7l0.1-1l0.2-1.2
				c0.1-0.4,0.2-0.8,0.3-1.1l0.2-0.4l0.3-2.1l0-1.2l0.1-1.1c0-0.4,0.2-0.8,0.3-1.2l0.2-0.5l0.1-1.8l0.2-0.9l0.3-2l-0.1-0.9l0.3-1.6
				c0.1-0.3,0.2-0.6,0.3-1l0-0.2l0.1-1.5c0-0.5,0.1-0.7,0.3-1.1l0.2-0.6l0.3-1.8l0.2-0.9l0.2-2.1l0-1l0.2-1.3c0-0.4,0.1-0.9,0.2-1.2
				l0.2-0.5c1-0.6,1.7-0.8,2.2-0.7l0.1,0l1.5,0.2c0.2,0,0.5,0.1,0.7,0.1l0.3,0.1l1.7,0.2l0.9,0.1l0.6-0.1c0.7,0,1.2,0.1,1.6,0.4
				l1.5,0.5c0,0,1,1,1.4,1.8c0.2,0.4,0.1,0.8,0.1,1.2l0,1l-0.2,1.1l-0.4,2l-0.1,1l-0.4,1.9l-0.1,1.2l-0.4,1.8l-0.3,1l-0.5,1.7
				l-0.2,1l-0.3,1.8l-0.1,0.4c0,0.5-0.1,0.8-0.2,1.3l-0.5,1.4l-0.2,1l-0.4,1.6l0,0.9l-0.4,2l-0.3,1l-0.3,1.8l-0.3,1.1l-0.4,2.1
				l-0.2,1.1l-0.3,1.8l-0.2,1l-0.7,2.1c0,0.2-0.2,0.5-0.3,0.6c-0.7,0.9-1.8,1-2.8,0.9l-1.4-0.2l-2.2-0.4l-0.9-0.1l-1.8-0.5
				c-0.7-0.1-1.2-0.3-1.4-0.6C284.5,90.3,284.4,89.7,284.4,89z"/>
		</g>
	</g>
</g>
<g>
	<path d="M218.1,142.9c0,1.4,0,3.3,0,5.7c0,5-0.2,5.8-0.3,6.5l0,0.1l0,0c0.4,2.7,1.4,3.1,2,3.1c0.9,0,1.3-0.5,1.4-1.7
		c3.1-0.2,6.5-0.3,10.8-0.4c0.3,1,1,1.8,1.6,1.8c1.4,0,2-1.1,2-3.6l0-13.2c0-1.3,0.1-1.7,0.3-2.2c0.3-0.5,0.3-0.7,0.3-1.1
		c0-0.5-0.4-1-1.2-1.6c-0.8-0.6-1.1-0.7-1.9-1.1l-0.1,0l-0.1,0c-0.4,0.2-1.1,0.4-2.7,0.5l-1.2,0.1c-2.2,0.1-5.2,0.3-8.7,0.5
		c-1-0.5-1.7-0.8-2.2-0.8c-0.3,0-0.6,0.3-0.6,0.5c0,0.3,0.1,0.6,0.2,1C218,138,218.1,138.8,218.1,142.9z M232.3,146.9v6.7
		c-3.6,0.1-7.4,0.3-11.1,0.5l0.1-6.6C224.9,147.1,228.5,146.9,232.3,146.9z M230.8,144c-0.4,0.2-0.8,0.3-1.3,0.4
		c-2.5,0.1-5.1,0.3-8.1,0.6l0-5.8c3.9-0.4,7.9-0.6,11-0.6v5.9c-0.4-0.2-1.1-0.5-1.4-0.5L230.8,144L230.8,144z"/>
	<path d="M247.6,144.4c3.6-0.5,7.6-1,11.1-1.4c0.7,2.6,1.3,4.5,2,6.2c1.7,4.1,3.9,7.4,6.7,9.9c1.2,1,2.2,1.6,3,1.6
		c0.9,0,1.4-0.6,1.4-1.7c0-1.3-0.2-3.5-0.5-5.2c-0.1-0.4-0.3-0.6-0.6-0.6c-0.2,0-0.4,0.2-0.6,0.5c-0.3,0.9-0.7,1.8-1.1,2.6
		c-2.2-2-4.1-4.6-5.5-8c-0.7-1.7-1.3-3.5-1.9-5.6c3-0.3,5.3-0.4,7.3-0.5c1.3,0,1.5-0.7,1.5-1.1c0-0.9-1.1-1.5-3.4-1.9l0,0l0,0
		c-0.6,0.3-1.5,0.4-2.4,0.5l-3.4,0.3c-0.1-0.7-0.3-1.5-0.4-2.2l0-0.1c-0.1-0.7-0.1-1.2-0.1-1.5c0-0.5,0.1-0.9,0.1-1.2
		c0.1-0.3,0.1-0.5,0.1-0.8c0-0.4-0.3-0.6-0.8-0.8c-1.2-0.6-2.5-0.9-3.1-0.9c-0.4,0-0.6,0.3-0.6,0.5c0,0.2,0.1,0.4,0.2,0.6
		c0,0.1,0.1,0.2,0.1,0.3c0.3,0.7,0.5,1.4,0.9,3.5c0.2,0.9,0.3,1.9,0.5,2.9c-3.3,0.4-7.6,0.8-12,1.4c-0.4,0.1-0.7,0.1-0.7,0.5
		c0,0.2,0.1,0.6,1.2,1.6C246.8,144.3,247.1,144.4,247.6,144.4z"/>
	<path d="M266.1,137.2c0.7,0.5,1.2,0.7,1.7,0.7c0.7,0,1.5-0.5,1.5-1.4c0-0.8-0.3-1.3-1.3-2c-1-0.6-3.2-1.2-4.1-1.2
		c-0.5,0-0.7,0.1-0.7,0.4c0,0.2,0.1,0.4,0.3,0.6C264.2,135.4,265.2,136.5,266.1,137.2z"/>
	<path d="M249.7,157.4c3.8-1.2,6.9-2.5,9.8-4.1c0.3-0.1,0.4-0.4,0.4-0.6c0-0.3-0.2-0.6-0.7-0.6c-0.1,0-0.2,0-0.3,0.1
		c-1.7,0.5-3.5,0.9-4.9,1.3l0.1-2.1c0-0.4,0.1-0.7,0.1-1c0.1-0.4,0.1-0.6,0.1-0.8c0-0.1,0-0.2-0.1-0.3c1.3-0.2,2.4-0.3,3.4-0.4
		c1-0.1,1.1-0.6,1.1-0.9c0-0.8-0.8-1.5-2.5-1.9l-0.1,0l-0.1,0c-0.5,0.3-0.9,0.5-2.1,0.7c-1.9,0.3-4.6,0.7-7.2,1
		c-0.5,0-0.7,0.2-0.7,0.4c0,0.3,0.9,1.4,1.2,1.7c0.3,0.3,0.5,0.4,0.9,0.4c0.9-0.2,1.9-0.4,2.9-0.6c0,0.3,0,0.5,0,0.7l0,3.6
		c-1,0.2-1.8,0.4-2.8,0.6c-0.8,0.2-1.6,0.2-2.5,0.2c-0.6,0-0.7,0.4-0.7,0.5c0,0.2,0,0.3,0.2,0.5c0.4,0.6,1.1,1.5,1.5,1.9
		c0.4,0.4,0.9,0.6,1.1,0.6c0.3,0,0.6-0.1,1-0.4C249.1,157.7,249.4,157.6,249.7,157.4z"/>
	<path d="M236,170.8L236,170.8c-0.4,0.3-0.9,0.5-1.4,0.6c-0.4,0.1-0.8,0.1-1.2,0.1c-0.3,0-0.6,0.1-0.9,0.1l0-0.4
		c0-0.5,0.1-0.9,0.2-1.2c0.1-0.3,0.2-0.6,0.2-0.8c0-0.2-0.1-0.5-0.6-0.7c-0.8-0.4-2.1-0.9-2.9-0.9c-0.5,0-0.6,0.3-0.6,0.5
		c0,0.1,0,0.3,0.1,0.5c0.2,0.4,0.4,1.3,0.5,3.2c-1.5,0.2-3.2,0.3-5.1,0.5c-0.1,0-0.4,0.1-0.4,0.4c0,0.2,0.2,0.6,1,1.5
		c0.2,0.4,0.5,0.4,0.9,0.4c0.9-0.1,2.1-0.3,3.7-0.5l0,0.9c0,0.9,0.8,1.6,1.6,1.6c0.6,0,1.3-0.4,1.3-1.4c0-0.2,0-0.5,0-0.7
		c0-0.2,0-0.4,0-0.6c1.9-0.2,3.6-0.3,5-0.3c0.8,0,1.5-0.1,1.5-0.9C238.9,171.9,237.8,171,236,170.8L236,170.8z"/>
	<path d="M238.5,176.4L238.5,176.4c-0.6,0.3-1,0.5-1.6,0.5c0-0.1,0-0.1,0.1-0.1c0.3-0.5,0.5-0.9,0.5-1.2c0-0.4-0.3-0.6-0.7-0.9
		c-1.2-0.7-2-0.8-2.3-0.8c-0.3,0-0.5,0.2-0.5,0.6c0,0.1,0,0.2,0.1,0.3c0.1,0.2,0.2,0.4,0.2,0.8c0,0.2-0.1,1.1-0.2,1.6
		c-0.9,0.1-1.7,0.2-2.6,0.2c-0.8,0.1-1.7,0.2-2.5,0.2v-0.3c0-0.5-0.1-0.8-0.6-1.2c-1.1-0.8-2-1.2-2.6-1.2c-0.2,0-0.6,0-0.6,0.4
		c0,0.2,0.1,0.4,0.2,0.7c0.3,0.5,0.5,1,0.6,1.5c0,0.1,0.1,0.2,0.1,0.3c0,0,0,0,0,0l-3.5,0.4c-0.4,0.1-0.7,0.1-0.7,0.5
		c0,0.3,0.1,0.5,0.8,1.2c0.5,0.6,0.8,0.7,1.2,0.7c0,0,0,0,0,0c0.9-0.1,1.7-0.2,2.6-0.4c0,0.1,0,0.3,0,0.4c0,0.3,0.1,0.5,0.1,0.8
		c0.1,1.1,0.7,1.4,1.1,1.4c0.8,0,1.1-0.7,1.1-1.3V180c1.5-0.2,2.8-0.3,4.4-0.4l0.2,0c-0.1,0.6-0.3,1.2-0.5,1.8
		c0,0.1-0.1,0.2-0.1,0.4c0,0.3,0.3,0.5,0.6,0.5c0.4,0,0.6-0.2,0.9-0.5c0.8-1,1.3-1.8,1.6-2.4c1-0.1,2.4-0.2,3.5-0.2h0.8
		c0.8,0,1.2-0.3,1.2-0.8C241.4,177.1,239.2,176.5,238.5,176.4L238.5,176.4z"/>
	<path d="M222.3,188.8c0.8,0,1.3-0.8,1.3-1.6c0-1.6-2.2-3.1-4.3-4c0.3-1.4,0.5-2.8,0.6-4.4c1.6-0.6,3.3-2,3.9-2.6
		c0.3-0.3,0.5-0.5,0.5-0.8c0-0.3-0.3-0.7-1-1.4c-0.5-0.4-1.1-0.9-1.5-0.9c-0.5,0-0.5,0.5-0.5,0.7c0,0.2,0,0.6-0.1,1
		c-0.2,0.5-0.6,1.3-1.1,2.1c0-0.2,0-0.5,0-0.7c0-0.5,0.1-0.9,0.1-1.4c0.1-2.6,0.2-3,0.3-3.4c0.1-0.3,0.2-0.5,0.2-0.8
		c0-0.4-0.4-0.8-1.3-1.4c-0.8-0.5-1.7-0.9-2.2-0.9c-0.3,0-0.5,0.2-0.5,0.5c0,0.2,0.1,0.5,0.2,1c0.2,0.7,0.3,1.4,0.3,4.2v0.8
		c0,8.6-1.2,12.7-4.8,16.9c-0.2,0.3-0.3,0.5-0.3,0.6c0,0.3,0.2,0.5,0.6,0.5c0.2,0,0.4-0.1,0.6-0.2c2.9-2.1,4.6-4.3,5.5-7.5
		c0.5,0.7,1.1,1.5,1.5,2.2C221,188.4,221.6,188.8,222.3,188.8z"/>
	<path d="M239.5,189.5c-0.2,0-0.5,0.1-0.5,0.8c0,0.6-0.1,1.3-0.2,1.8c-0.1,0.3-0.2,0.5-0.5,0.6c-0.5,0.2-1.3,0.3-2,0.3
		c-1.5,0-1.8-0.1-1.8-1.4c0-1.2,0-2.9,0.1-4.5c0-0.2,0-0.5,0.1-0.7c0.1-0.3,0.2-0.4,0.2-0.8c0-0.3-0.2-0.6-0.7-0.9
		c1.2-0.1,2.5-0.1,3.8-0.1c0.9,0,1.8-0.1,1.8-1c0-0.8-1.1-1.6-2.8-1.9l0,0l0,0c-0.6,0.3-1.3,0.4-2.1,0.5c-4.1,0.4-7.8,0.7-11.7,1.1
		c-0.4,0.1-0.7,0.1-0.7,0.4c0,0.3,0.2,0.5,1,1.5c0.3,0.3,0.4,0.4,0.9,0.4c0,0,0,0,0,0c0.9-0.1,1.7-0.2,2.5-0.3
		c0,0.5-0.1,0.8-0.2,1.2c-1.4,3.7-3.3,6.1-6.5,8.2c-0.3,0.2-0.5,0.4-0.5,0.7c0,0.3,0.2,0.6,0.6,0.6c0.1,0,0.2,0,0.3-0.1
		c4-1.4,6.6-3.7,8.6-7.5c0.1-0.3,0.3-0.5,0.4-0.8c0.1-0.2,0.2-0.4,0.3-0.6c0.2-0.3,0.3-0.7,0.3-1c0-0.3-0.3-0.7-0.6-1l1.8-0.2
		c0.1,0.4,0.2,1.1,0.2,2.4l-0.1,4.8c0,2.4,1.7,3.7,4.8,3.7c1.9,0,3.5-0.2,4.6-0.7c0.9-0.4,1.4-0.9,1.4-1.6c0-0.8-0.7-2.3-2.2-3.8
		C239.9,189.6,239.6,189.5,239.5,189.5z"/>
	<path d="M214.8,181.9c0.8,0,1.3-0.7,1.3-1.8c0-1.1-0.6-2.5-1.4-3.6c-0.4-0.6-1.1-1.2-1.5-1.2c-0.3,0-0.5,0.2-0.5,0.7
		c0,1.4,0.2,2.9,0.7,4.6C213.7,181.6,214.3,181.9,214.8,181.9z"/>
	<path d="M274.6,175.8c0-0.6-0.9-1.4-1.2-1.7c-1.1-0.9-1.9-1.3-2.5-1.5l-0.1,0l0,0c-0.8,0.4-1.4,0.5-3.4,0.6c-1.3,0-3,0.1-4.9,0.3
		c0.2-0.5,0.3-0.9,0.4-1.4c0.2-0.8,0.3-1.4,0.6-1.8c0.2-0.4,0.2-0.5,0.2-0.8c0-0.4-0.6-0.9-1.5-1.3c-0.9-0.4-1.5-0.5-2.1-0.5
		c-0.6,0-0.7,0.4-0.7,0.6l0,0.1c0.4,0.8,0.4,1.3,0.4,1.7c0,0.4,0,1-0.1,1.6c-0.1,0.8-0.2,1.5-0.5,2.1c-2.6,0.2-5.2,0.4-7.9,0.6
		c-1.3-0.7-1.9-0.8-2.4-0.8c-0.3,0-0.5,0.1-0.5,0.4c0,0.2,0,0.4,0.1,0.7c0.4,0.9,0.5,1.7,0.6,2.7c0.1,1.9,0.1,4.3,0.1,6.7
		c0,2.5,0,4.7-0.1,5.8c0,0.9-0.2,1.3-0.3,1.8l0,0c0,1.7,1.3,3.1,2.1,3.1c0.9,0,1.4-0.8,1.4-2.1l0-15.9c2-0.2,3.8-0.3,5.8-0.5
		c-1.1,2-2.7,3.7-4.7,5.2c-0.2,0.2-0.4,0.4-0.4,0.6c0,0.2,0.2,0.5,0.6,0.5c0.2,0,0.5-0.1,0.9-0.3c2.4-1.1,4.4-2.7,6-4.8
		c1.8,1,4.3,2.8,5.6,4.1c0.8,0.9,1.3,1.2,1.9,1.2c0.6,0,1.2-0.5,1.2-1.7c0-1-0.7-1.9-2.1-2.7c-1.4-0.8-3.8-1.7-5.9-2.2
		c0-0.1,0.1-0.1,0.1-0.2c3.4-0.2,6.5-0.3,9.1-0.3c0.1,3.9,0.2,7.5,0.2,10.8c0,1.7,0,3.3,0,4.9c-0.6,0-1.2-0.2-1.7-0.3
		c-0.4-0.1-0.7-0.1-0.8-0.1c-0.4,0-0.5,0.2-0.5,0.4c0,0.2,0.1,0.5,0.2,0.8c0.4,0.6,1.2,1.6,2.1,2.7c0.7,0.9,1.3,1,1.7,1
		c0.8,0,2.1-1.4,2.3-4.4c0-3.4-0.1-8.5-0.1-12.4c0-1.2,0.1-1.8,0.3-2C274.4,176.6,274.6,176.2,274.6,175.8z"/>
	<path d="M268.7,188.8c0-1-0.7-1.9-2.1-2.7c-1.3-0.8-3.2-1.5-5-1.9c0.3-0.4,0.6-0.8,0.9-1.3c0.2-0.3,0.4-0.7,0.4-1
		c0-0.4-0.5-0.8-1.5-1.2c-0.6-0.2-1.2-0.4-1.9-0.4c-0.4,0-0.6,0.3-0.6,0.6l0.1,0.2c0.2,0.3,0.3,0.6,0.3,0.7c0,0.3,0,0.7-0.3,1.2
		c-1.4,2.4-3.1,4.2-5.5,6c-0.4,0.2-0.4,0.5-0.4,0.6c0,0.3,0.3,0.5,0.6,0.5c0.2,0,0.7-0.2,1.2-0.4c2.4-1.1,4.2-2.4,5.9-4.3
		c1.5,0.9,3.6,2.5,4.9,3.9c0.8,0.9,1.3,1.2,1.9,1.2C268.1,190.4,268.7,189.9,268.7,188.8z"/>
</g>
</svg>
